<?xml version="1.0" encoding="UTF-8" standalone="no"?>
<!-- Created with Inkscape (http://www.inkscape.org/) -->

<svg
   width="439.01245"
   height="213.646"
   viewBox="0 0 116.15538 56.527168"
   version="1.1"
   id="svg5"
   sodipodi:docname="nd-logo.svg"
   inkscape:version="1.2.2 (b0a8486541, 2022-12-01)"
   xmlns:inkscape="http://www.inkscape.org/namespaces/inkscape"
   xmlns:sodipodi="http://sodipodi.sourceforge.net/DTD/sodipodi-0.dtd"
   xmlns:xlink="http://www.w3.org/1999/xlink"
   xmlns="http://www.w3.org/2000/svg"
   xmlns:svg="http://www.w3.org/2000/svg">
  <sodipodi:namedview
     id="namedview55"
     pagecolor="#ffffff"
     bordercolor="#666666"
     borderopacity="1.0"
     inkscape:pageshadow="2"
     inkscape:pageopacity="0.0"
     inkscape:pagecheckerboard="0"
     inkscape:document-units="mm"
     showgrid="false"
     inkscape:zoom="1.6672775"
     inkscape:cx="177.53494"
     inkscape:cy="97.764172"
     inkscape:window-width="1920"
     inkscape:window-height="993"
     inkscape:window-x="0"
     inkscape:window-y="25"
     inkscape:window-maximized="1"
     inkscape:current-layer="svg5"
     fit-margin-top="5"
     fit-margin-left="5"
     fit-margin-right="5"
     fit-margin-bottom="5"
     units="px"
     lock-margins="true"
     inkscape:showpageshadow="2"
     inkscape:deskcolor="#d1d1d1">
    <inkscape:grid
       type="xygrid"
       id="grid1620"
       originx="-137.61251"
       originy="-60.566329" />
  </sodipodi:namedview>
  <defs
     id="defs2">
    <linearGradient
       inkscape:collect="always"
       id="linearGradient1142">
      <stop
         style="stop-color:#0010ff;stop-opacity:1;"
         offset="0.07652593"
         id="stop1138" />
      <stop
         style="stop-color:#000000;stop-opacity:0;"
         offset="1"
         id="stop1140" />
    </linearGradient>
    <linearGradient
       inkscape:collect="always"
       id="linearGradient1624">
      <stop
         style="stop-color:#0010ff;stop-opacity:1;"
         offset="0"
         id="stop1616" />
      <stop
         style="stop-color:#000102;stop-opacity:1"
         offset="0.23255913"
         id="stop1618" />
      <stop
         style="stop-color:#000000;stop-opacity:1;"
         offset="0.70307189"
         id="stop1620" />
      <stop
         style="stop-color:#000000;stop-opacity:0.00238264"
         offset="1"
         id="stop1622" />
    </linearGradient>
    <inkscape:path-effect
       effect="bend_path"
       id="path-effect13941"
       is_visible="true"
       lpeversion="1"
       bendpath="m 62.097397,48.700646 c 18.331118,-1.193471 38.551233,8.116927 53.839613,0"
       prop_scale="1"
       scale_y_rel="false"
       vertical="false"
       hide_knot="false"
       bendpath-nodetypes="cc" />
    <inkscape:path-effect
       effect="spiro"
       id="path-effect13420"
       is_visible="true"
       lpeversion="1" />
    <inkscape:path-effect
       effect="spiro"
       id="path-effect13223"
       is_visible="true"
       lpeversion="1" />
    <inkscape:path-effect
       effect="spiro"
       id="path-effect12479"
       is_visible="true"
       lpeversion="1" />
    <inkscape:path-effect
       effect="spiro"
       id="path-effect12475"
       is_visible="true"
       lpeversion="1" />
    <inkscape:path-effect
       effect="spiro"
       id="path-effect4346"
       is_visible="true"
       lpeversion="1" />
    <inkscape:path-effect
       effect="spiro"
       id="path-effect3812"
       is_visible="true"
       lpeversion="1" />
    <inkscape:path-effect
       effect="spiro"
       id="path-effect3806"
       is_visible="true"
       lpeversion="1" />
    <inkscape:path-effect
       effect="spiro"
       id="path-effect3720"
       is_visible="true"
       lpeversion="1" />
    <inkscape:path-effect
       effect="spiro"
       id="path-effect3142"
       is_visible="true"
       lpeversion="1" />
    <inkscape:path-effect
       effect="spiro"
       id="path-effect3138"
       is_visible="true"
       lpeversion="1" />
    <inkscape:path-effect
       effect="skeletal"
       id="path-effect39721"
       is_visible="true"
       lpeversion="1"
       pattern="m 24.444671,-1.4836316 v 2.07532667 l -0.02532,-0.02479 -0.325045,0.3255617 -0.325562,-0.3255617 -0.04909,0.04961 0.325045,0.325562 -0.304375,0.30437403 h -0.170533 v 0.07028 h 0.874883 v 2.714564 c -0.129299,-0.118785 -0.404426,-0.09708 -0.55914,-0.0078 -0.173839,0.100365 -0.349447,0.3744479 -0.24908,0.5482869 0.100367,0.173842 0.425607,0.15876 0.599447,0.05839 0.151946,-0.08772 0.305679,-0.308334 0.274918,-0.4785229 h 0.0036 v -2.834968 h 0.105421 v -0.07028 h -0.10542 v -2.5197437 h 5.180562 v 0.34984997 h -1.820044 v 1.5151407 l -0.02532,-0.02479 -0.325044,0.3255617 -0.325562,-0.3255617 -0.04909,0.04961 0.325045,0.325562 -0.304374,0.30437403 h -0.170532 v 0.07028 h 1.050075 v -0.07028 H 27.87857 l -0.304374,-0.30437403 0.300757,-0.300757 V 1.0014581 h 0.06976 v -1.71514173 h 1.750281 v 1.3053477 l -0.02532,-0.02479 -0.325045,0.3255607 -0.325561,-0.3255607 -0.04909,0.04961 0.325045,0.325562 -0.304374,0.30437403 h -0.170534 v 0.07028 h 0.874882 v 2.714564 c -0.129302,-0.118782 -0.403913,-0.09707 -0.558622,-0.0078 -0.173841,0.100364 -0.349964,0.3744469 -0.249597,0.5482859 0.100367,0.173842 0.425607,0.158761 0.599446,0.05839 0.151948,-0.08773 0.305682,-0.308335 0.274919,-0.4785239 h 0.0036 v -2.834968 h 0.10542 v -0.07028 h -0.10542 v -2.7299997 z m 7.000603,0.94516197 v 1.1306807 l -0.02532,-0.02532 -0.325043,0.3255607 -0.325562,-0.3255607 -0.04909,0.04961 0.325046,0.325562 -0.304374,0.30437403 h -0.171049 v 0.07028 h 0.875396 v 1.314648 c -0.12918,-0.119076 -0.404312,-0.09714 -0.559139,-0.0078 -0.173841,0.100367 -0.349444,0.374447 -0.249077,0.548285 0.100366,0.173842 0.425089,0.158244 0.598928,0.05788 0.0774,-0.04468 0.155639,-0.123556 0.209288,-0.212904 v 1.014406 c -0.12918,-0.119076 -0.404312,-0.09714 -0.559139,-0.0078 -0.173841,0.100367 -0.349444,0.3744489 -0.249077,0.5482889 0.100366,0.173839 0.425089,0.15876 0.598928,0.05839 0.151948,-0.08772 0.305678,-0.308335 0.274918,-0.4785239 h 0.0041 v -1.353921 -1.481047 h 0.104902 v -0.07028 h -0.104902 v -1.78490473 z m 0,1.1792577 V 1.2428181 L 31.144001,0.94206107 Z m -7.000603,5.29e-4 V 1.2423121 L 24.143914,0.94155507 Z m 5.250325,0 V 1.2423121 L 29.394239,0.94155507 Z m -5.600692,0.349848 0.254765,0.25528303 h -0.510046 z m 3.430282,0 0.254765,0.25528303 h -0.510047 z m 1.820044,0 0.254764,0.25528303 h -0.510046 z m 1.75028,0 0.254765,0.25528303 H 30.839627 Z M 20.472357,4.0114601 H 34.717374 M 20.472357,3.3114161 H 34.717374 M 20.472155,1.8764711 v 0.06987 h 14.245062 v -0.06987 z m 0,0.699769 v 0.07028 h 14.245062 v -0.07028 z m 0,0.700179 v 0.06973 h 14.245062 v -0.06973 z m 0,0.700182 v 0.06987 h 14.245062 v -0.06987 z m 0,0.6997709 v 0.07028 h 14.245062 v -0.07028 z m 2.02e-4,0.03513 h 14.245017"
       copytype="single_stretched"
       prop_scale="3.740833"
       scale_y_rel="false"
       spacing="0"
       normal_offset="0"
       tang_offset="0"
       prop_units="false"
       vertical_pattern="false"
       hide_knot="false"
       fuse_tolerance="0" />
    <inkscape:path-effect
       effect="skeletal"
       id="path-effect38498"
       is_visible="true"
       lpeversion="1"
       pattern="m 24.444671,-64.983635 v 2.075327 l -0.02532,-0.02479 -0.325045,0.325562 -0.325562,-0.325562 -0.04909,0.04961 0.325045,0.325562 -0.304375,0.304374 h -0.170533 v 0.07028 h 0.874883 v 2.714564 c -0.129299,-0.118785 -0.404426,-0.09708 -0.55914,-0.0078 -0.173839,0.100365 -0.349447,0.374448 -0.24908,0.548287 0.100367,0.173842 0.425607,0.15876 0.599447,0.05839 0.151946,-0.08772 0.305679,-0.308334 0.274918,-0.478523 h 0.0036 v -2.834968 h 0.105421 v -0.07028 h -0.10542 v -2.519744 h 5.180562 v 0.34985 h -1.820044 v 1.515141 l -0.02532,-0.02479 -0.325044,0.325562 -0.325562,-0.325562 -0.04909,0.04961 0.325045,0.325562 -0.304374,0.304374 h -0.170532 v 0.07028 h 1.050075 v -0.07028 H 27.87857 l -0.304374,-0.304374 0.300757,-0.300757 v 0.360185 h 0.06976 v -1.715142 h 1.750281 v 1.305348 l -0.02532,-0.02479 -0.325045,0.325561 -0.325561,-0.325561 -0.04909,0.04961 0.325045,0.325562 -0.304374,0.304374 h -0.170534 v 0.07028 h 0.874882 v 2.714564 c -0.129302,-0.118782 -0.403913,-0.09707 -0.558622,-0.0078 -0.173841,0.100364 -0.349964,0.374447 -0.249597,0.548286 0.100367,0.173842 0.425607,0.158761 0.599446,0.05839 0.151948,-0.08773 0.305682,-0.308335 0.274919,-0.478524 h 0.0036 v -2.834968 h 0.10542 v -0.07028 h -0.10542 v -2.73 z m 7.000603,0.945162 v 1.130681 l -0.02532,-0.02532 -0.325043,0.325561 -0.325562,-0.325561 -0.04909,0.04961 0.325046,0.325562 -0.304374,0.304374 h -0.171049 v 0.07028 h 0.875396 v 1.314648 c -0.12918,-0.119076 -0.404312,-0.09714 -0.559139,-0.0078 -0.173841,0.100367 -0.349444,0.374447 -0.249077,0.548285 0.100366,0.173842 0.425089,0.158244 0.598928,0.05788 0.0774,-0.04468 0.155639,-0.123556 0.209288,-0.212904 v 1.014406 c -0.12918,-0.119076 -0.404312,-0.09714 -0.559139,-0.0078 -0.173841,0.100367 -0.349444,0.374449 -0.249077,0.548289 0.100366,0.173839 0.425089,0.15876 0.598928,0.05839 0.151948,-0.08772 0.305678,-0.308335 0.274918,-0.478524 h 0.0041 v -1.353921 -1.481047 h 0.104902 v -0.07028 h -0.104902 v -1.784905 z m 0,1.179258 v 0.60203 l -0.301273,-0.300757 z m -7.000603,5.29e-4 v 0.600995 l -0.300757,-0.300757 z m 5.250325,0 v 0.600995 l -0.300757,-0.300757 z m -5.600692,0.349848 0.254765,0.255283 h -0.510046 z m 3.430282,0 0.254765,0.255283 h -0.510047 z m 1.820044,0 0.254764,0.255283 h -0.510046 z m 1.75028,0 0.254765,0.255283 h -0.510048 z m -10.622553,3.020295 h 14.245017 m -14.245017,-0.700044 h 14.245017 m -14.245219,-1.434945 v 0.06987 h 14.245062 v -0.06987 z m 0,0.699769 v 0.07028 h 14.245062 v -0.07028 z m 0,0.700179 v 0.06973 h 14.245062 v -0.06973 z m 0,0.700182 v 0.06987 h 14.245062 v -0.06987 z m 0,0.699771 v 0.07028 h 14.245062 v -0.07028 z m 2.02e-4,0.03513 h 14.245017"
       copytype="single_stretched"
       prop_scale="3.740833"
       scale_y_rel="false"
       spacing="0"
       normal_offset="0"
       tang_offset="0"
       prop_units="false"
       vertical_pattern="false"
       hide_knot="false"
       fuse_tolerance="0" />
    <inkscape:path-effect
       effect="bend_path"
       id="path-effect38199"
       is_visible="true"
       lpeversion="1"
       bendpath="m 57.40708,116.08783 18.520833,-7.9375 23.8125,13.22917 18.520837,-7.9375"
       prop_scale="1"
       scale_y_rel="false"
       vertical="false"
       hide_knot="false" />
    <inkscape:path-effect
       effect="bend_path"
       id="path-effect37686"
       is_visible="true"
       lpeversion="1"
       bendpath="m 54.761246,118.73367 c 0,0 7.9375,-5.29167 13.229167,-5.29167 5.291667,0 15.875,7.9375 21.166667,7.9375 5.291666,0 18.52083,-5.29167 18.52083,-5.29167"
       prop_scale="1"
       scale_y_rel="false"
       vertical="false"
       hide_knot="false" />
    <inkscape:path-effect
       effect="bend_path"
       id="path-effect36495"
       is_visible="true"
       lpeversion="1"
       bendpath="m 65.34458,118.73367 c 10.583333,-5.29167 18.520833,0 18.520833,0 l 15.875,-5.29167"
       prop_scale="1"
       scale_y_rel="false"
       vertical="false"
       hide_knot="false" />
    <inkscape:path-effect
       effect="bend_path"
       id="path-effect35259"
       is_visible="true"
       lpeversion="1"
       bendpath="M 61.375064,78.51754 H 115.21526"
       prop_scale="1"
       scale_y_rel="false"
       vertical="false"
       hide_knot="false" />
    <inkscape:path-effect
       effect="skeletal"
       id="path-effect35257"
       is_visible="true"
       lpeversion="1"
       pattern="M 0,0 H 1"
       copytype="single_stretched"
       prop_scale="1"
       scale_y_rel="false"
       spacing="0"
       normal_offset="0"
       tang_offset="0"
       prop_units="false"
       vertical_pattern="false"
       hide_knot="false"
       fuse_tolerance="0" />
    <inkscape:path-effect
       effect="lattice2"
       gridpoint0="73.8125,60.392578"
       gridpoint1="104.23828,60.392578"
       gridpoint2="73.8125,83.780737"
       gridpoint3="104.23828,83.780737"
       gridpoint4="81.418945,60.392578"
       gridpoint5="96.631835,60.392578"
       gridpoint6="81.418945,83.780737"
       gridpoint7="96.631835,83.780737"
       gridpoint8x9="89.02539,60.392578"
       gridpoint10x11="89.02539,83.780737"
       gridpoint12="73.8125,66.239618"
       gridpoint13="104.23828,66.239618"
       gridpoint14="73.8125,77.933697"
       gridpoint15="104.23828,77.933697"
       gridpoint16="81.418945,66.239618"
       gridpoint17="96.631835,66.239618"
       gridpoint18="81.418945,77.933697"
       gridpoint19="96.631835,77.933697"
       gridpoint20x21="89.02539,66.239618"
       gridpoint22x23="89.02539,77.933697"
       gridpoint24x26="73.8125,72.086658"
       gridpoint25x27="104.23828,72.086658"
       gridpoint28x30="81.418945,72.086658"
       gridpoint29x31="96.631835,72.086658"
       gridpoint32x33x34x35="89.02539,72.086658"
       id="path-effect34431"
       is_visible="true"
       lpeversion="1"
       horizontal_mirror="false"
       vertical_mirror="false"
       perimetral="false"
       live_update="true" />
    <inkscape:path-effect
       effect="spiro"
       id="path-effect13958"
       is_visible="true"
       lpeversion="1" />
    <inkscape:path-effect
       effect="spiro"
       id="path-effect13952"
       is_visible="true"
       lpeversion="1" />
    <inkscape:path-effect
       effect="spiro"
       id="path-effect13946"
       is_visible="true"
       lpeversion="1" />
    <inkscape:path-effect
       effect="spiro"
       id="path-effect13940"
       is_visible="true"
       lpeversion="1" />
    <inkscape:path-effect
       effect="spiro"
       id="path-effect13854"
       is_visible="true"
       lpeversion="1" />
    <rect
       x="36.971642"
       y="388.75717"
       width="500"
       height="180"
       id="rect20799" />
    <rect
       x="56.971642"
       y="8.7571659"
       width="480"
       height="120"
       id="rect15575" />
    <inkscape:path-effect
       effect="spiro"
       id="path-effect1669"
       is_visible="true"
       lpeversion="1" />
    <inkscape:path-effect
       effect="spiro"
       id="path-effect1665"
       is_visible="true"
       lpeversion="1" />
    <inkscape:path-effect
       effect="spiro"
       id="path-effect1661"
       is_visible="true"
       lpeversion="1" />
    <inkscape:path-effect
       effect="spiro"
       id="path-effect1657"
       is_visible="true"
       lpeversion="1" />
    <filter
       style="color-interpolation-filters:sRGB"
       inkscape:label="Duochrome"
       id="filter4028"
       x="0"
       y="0"
       width="1"
       height="1">
      <feColorMatrix
         type="luminanceToAlpha"
         result="colormatrix1"
         id="feColorMatrix4008" />
      <feFlood
         flood-opacity="1"
         flood-color="rgb(0,0,0)"
         result="flood1"
         id="feFlood4010" />
      <feComposite
         in2="colormatrix1"
         operator="out"
         result="composite1"
         id="feComposite4012" />
      <feFlood
         flood-opacity="1"
         flood-color="rgb(255,255,255)"
         result="flood2"
         id="feFlood4014" />
      <feComposite
         in2="colormatrix1"
         result="composite2"
         operator="in"
         id="feComposite4016" />
      <feComposite
         in="composite2"
         in2="composite1"
         k2="1"
         k3="1"
         operator="arithmetic"
         result="composite3"
         id="feComposite4018"
         k1="0"
         k4="0" />
      <feColorMatrix
         in="composite3"
         type="matrix"
         values="2 -1 0 0 0 0 2 -1 0 0 -1 0 2 0 0 0 0 0 1 0 "
         result="colormatrix2"
         id="feColorMatrix4020" />
      <feComposite
         in="colormatrix2"
         in2="composite3"
         operator="arithmetic"
         k2="1.24699"
         result="composite4"
         id="feComposite4022"
         k1="0"
         k3="0"
         k4="0" />
      <feBlend
         in="composite4"
         in2="composite3"
         mode="normal"
         result="blend"
         id="feBlend4024" />
      <feComposite
         in2="SourceGraphic"
         operator="in"
         id="feComposite4026"
         result="fbSourceGraphic" />
      <feColorMatrix
         result="fbSourceGraphicAlpha"
         in="fbSourceGraphic"
         values="0 0 0 -1 0 0 0 0 -1 0 0 0 0 -1 0 0 0 0 1 0"
         id="feColorMatrix5064" />
      <feColorMatrix
         id="feColorMatrix5066"
         type="luminanceToAlpha"
         result="colormatrix1"
         in="fbSourceGraphic" />
      <feFlood
         id="feFlood5068"
         flood-opacity="1"
         flood-color="rgb(0,51,153)"
         result="flood1" />
      <feComposite
         in2="colormatrix1"
         id="feComposite5070"
         operator="out"
         result="composite1" />
      <feFlood
         id="feFlood5072"
         flood-opacity="1"
         flood-color="rgb(255,255,255)"
         result="flood2" />
      <feComposite
         in2="colormatrix1"
         id="feComposite5074"
         result="composite2"
         operator="in" />
      <feComposite
         in2="composite1"
         id="feComposite5076"
         in="composite2"
         k2="1"
         k3="1"
         operator="arithmetic"
         result="composite3"
         k1="0"
         k4="0" />
      <feColorMatrix
         id="feColorMatrix5078"
         in="composite3"
         type="matrix"
         values="2 -1 0 0 0 0 2 -1 0 0 -1 0 2 0 0 0 0 0 1 0 "
         result="colormatrix2" />
      <feComposite
         in2="composite3"
         id="feComposite5080"
         in="colormatrix2"
         operator="arithmetic"
         k2="1.24699"
         result="composite4"
         k1="0"
         k3="0"
         k4="0" />
      <feBlend
         in2="composite3"
         id="feBlend5082"
         in="composite4"
         mode="normal"
         result="blend" />
      <feComposite
         in2="fbSourceGraphic"
         id="feComposite5084"
         operator="in" />
    </filter>
    <inkscape:path-effect
       effect="fill_between_many"
       method="originald"
       linkedpaths="#path5434,0,1"
       id="path-effect13092"
       is_visible="true"
       lpeversion="0"
       join="true"
       close="true"
       autoreverse="true"
       applied="false" />
    <filter
       style="color-interpolation-filters:sRGB"
       inkscape:label="Duochrome"
       id="filter25110"
       x="0"
       y="0"
       width="1"
       height="1">
      <feColorMatrix
         type="luminanceToAlpha"
         result="colormatrix1"
         id="feColorMatrix25090" />
      <feFlood
         flood-opacity="1"
         flood-color="rgb(0,51,153)"
         result="flood1"
         id="feFlood25092" />
      <feComposite
         in2="colormatrix1"
         operator="out"
         result="composite1"
         id="feComposite25094" />
      <feFlood
         flood-opacity="1"
         flood-color="rgb(255,255,255)"
         result="flood2"
         id="feFlood25096" />
      <feComposite
         in2="colormatrix1"
         result="composite2"
         operator="in"
         id="feComposite25098" />
      <feComposite
         in="composite2"
         in2="composite1"
         k2="1"
         k3="1"
         operator="arithmetic"
         result="composite3"
         id="feComposite25100"
         k1="0"
         k4="0" />
      <feColorMatrix
         in="composite3"
         type="matrix"
         values="2 -1 0 0 0 0 2 -1 0 0 -1 0 2 0 0 0 0 0 1 0 "
         result="colormatrix2"
         id="feColorMatrix25102" />
      <feComposite
         in="colormatrix2"
         in2="composite3"
         operator="arithmetic"
         k2="1.24699"
         result="composite4"
         id="feComposite25104"
         k1="0"
         k3="0"
         k4="0" />
      <feBlend
         in="composite4"
         in2="composite3"
         mode="normal"
         result="blend"
         id="feBlend25106" />
      <feComposite
         in2="SourceGraphic"
         operator="in"
         id="feComposite25108" />
    </filter>
    <inkscape:path-effect
       effect="skeletal"
       id="path-effect35257-3"
       is_visible="true"
       lpeversion="1"
       pattern="M 0,0 H 1"
       copytype="single_stretched"
       prop_scale="1"
       scale_y_rel="false"
       spacing="0"
       normal_offset="0"
       tang_offset="0"
       prop_units="false"
       vertical_pattern="false"
       hide_knot="false"
       fuse_tolerance="0" />
    <linearGradient
       inkscape:collect="always"
       xlink:href="#linearGradient1624"
       id="linearGradient13801"
       gradientUnits="userSpaceOnUse"
       gradientTransform="translate(-5.4489994,-52.299999)"
       x1="74.92247"
       y1="89.981033"
       x2="116.75236"
       y2="73.600433" />
    <linearGradient
       inkscape:collect="always"
       xlink:href="#linearGradient1142"
       id="linearGradient1144"
       x1="43.279575"
       y1="45.797283"
       x2="95.578194"
       y2="45.797283"
       gradientUnits="userSpaceOnUse"
       gradientTransform="translate(15.875)" />
  </defs>
  <path
     style="fill:none;stroke:#0010ff;stroke-width:1;stroke-linecap:round;stroke-linejoin:miter;stroke-miterlimit:4;stroke-dasharray:none;stroke-opacity:1"
     d="m 0.5,28.871487 h 3.0909693 c 1.6715921,0 1.5249991,-2.307902 3.1735291,-2.307902 1.648582,0 1.978273,8.902359 3.6268376,8.902359 1.648546,0 1.826361,-21.91305 3.297111,-21.777406 1.648548,0 1.648548,34.721462 3.297113,34.721462 1.648547,0 1.648547,-47.91 3.29712,-47.91 1.648565,0 1.648565,44.857214 3.29711,44.857214 1.648565,0 1.648565,-29.673917 3.297096,-29.673917 1.648562,0 1.648562,23.079792 3.297109,23.079792 1.648583,1.3e-5 1.318892,-12.199504 2.967438,-12.199504 1.648562,0 1.718721,2.32222 3.349272,2.307902 h 6.871796"
     id="path1257"
     sodipodi:nodetypes="cssscsssssscc" />
  <g
     id="g2259"
     transform="translate(-293.77359,-152.82802)" />
  <g
     id="path9390"
     transform="translate(-328.16942,-158.11966)" />
  <g
     id="path11241"
     transform="translate(-328.16942,-158.11966)" />
  <g
     id="path18151"
     transform="translate(-328.16942,-158.11966)" />
  <g
     id="g13965-5"
     transform="translate(-4.5195799,-52.301403)"
     style="fill:#bfbfbf;stroke:#808080;stroke-opacity:1">
    <g
       id="path13852-3" />
    <g
       id="path13936-2" />
    <g
       id="path13942-1" />
    <g
       id="path13948-2" />
    <g
       id="path13954-7" />
  </g>
  <path
     id="path1887"
     style="color:#000000;fill:url(#linearGradient13801);stroke-width:1;stroke-linecap:round;stroke-linejoin:round;-inkscape-stroke:none;paint-order:markers stroke fill"
     d="m 73.274975,8.2505665 a 0.15001501,0.15001501 0 0 0 -0.16795,0.1307412 l -1.009756,7.7576673 a 0.15001501,0.15001501 0 0 0 -0.08785,-0.04651 c -0.06424,-0.0083 -0.12691,-0.01707 -0.191204,-0.02532 a 0.15001501,0.15001501 0 0 0 -0.0021,0 c -0.0842,-0.01053 -0.167894,-0.02111 -0.252182,-0.03152 a 0.15001501,0.15001501 0 0 0 -0.167947,0.130741 l -0.02326,0.179835 c -0.308372,0.231148 -0.615701,0.464359 -0.921909,0.697113 -0.242234,-0.295666 -0.48591,-0.590571 -0.732255,-0.8847 l 0.01913,-0.177766 a 0.15001501,0.15001501 0 0 0 -0.13281,-0.16588 c -0.14995,-0.01638 -0.298847,-0.0312 -0.449067,-0.04703 a 0.15001501,0.15001501 0 0 0 -0.16588,0.132807 l -0.04703,0.429948 a 0.15001501,0.15001501 0 0 0 0.134876,0.163817 c 0.06535,0.0069 0.13003,0.01468 0.195337,0.0217 0.244128,0.290682 0.484383,0.582562 0.724503,0.874882 -0.300138,0.229798 -0.599244,0.459822 -0.896586,0.69143 -0.06472,-0.007 -0.128529,-0.01479 -0.19327,-0.0217 a 0.15001501,0.15001501 0 0 0 -0.16588,0.132808 l -0.01963,0.183967 0.04496,-0.03514 a 0.15001501,0.15001501 0 0 0 -0.05839,0.10542 c -0.0047,0.05977 -0.0093,0.120063 -0.01394,0.179835 a 0.15001501,0.15001501 0 0 0 0.0217,0.02687 c -0.06919,-0.0073 -0.138012,-0.0181 -0.207221,-0.02532 a 0.15001501,0.15001501 0 0 0 -0.163814,0.13281 l -0.02739,0.264065 a 0.15001501,0.15001501 0 0 0 0.13281,0.165883 c 1.068549,0.111791 2.136021,0.23958 3.201355,0.376721 l -0.234611,1.805057 C 66.460483,20.729607 61.532565,20.307081 56.624791,20.647229 a 0.15001501,0.15001501 0 0 0 -0.14056,0.159679 l 0.01757,0.264067 a 0.15001501,0.15001501 0 0 0 0.160197,0.138494 c 4.84999,-0.338561 9.740895,0.08176 14.681274,0.724503 l -0.26717,2.066541 c -4.877043,-0.641411 -9.633736,-1.06073 -14.275615,-0.714687 a 0.15001501,0.15001501 0 0 0 -0.138491,0.160197 l 0.01757,0.265618 a 0.15001501,0.15001501 0 0 0 0.160197,0.138494 c 4.581887,-0.344136 9.301472,0.07315 14.161926,0.713134 l -0.269751,2.066022 C 65.935967,25.990833 61.35163,25.574572 56.976189,25.926492 a 0.15001501,0.15001501 0 0 0 -0.136427,0.160197 l 0.01757,0.263552 a 0.15001501,0.15001501 0 0 0 0.161748,0.138491 c 4.313864,-0.349666 8.860565,0.06198 13.641027,0.699182 l -0.26975,2.066542 c -0.05472,-0.0074 -0.109188,-0.01532 -0.163817,-0.02273 -0.384797,-0.199901 -0.869791,-0.241485 -1.30121,-0.168982 -4.167891,-0.521642 -8.088678,-0.814713 -11.771376,-0.494027 a 0.15001501,0.15001501 0 0 0 -0.136424,0.158131 l 0.01757,0.264065 a 0.15001501,0.15001501 0 0 0 0.161748,0.138493 c 3.386126,-0.297262 7.007399,-0.05212 10.851533,0.404111 -0.228563,0.188191 -0.469239,0.373806 -0.619083,0.638721 -0.209174,0.369802 -0.311359,0.797335 -0.160197,1.179771 0.03716,0.09401 0.130821,0.134962 0.19172,0.209291 -3.632486,-0.426265 -7.015679,-0.648848 -10.131166,-0.353983 a 0.15001501,0.15001501 0 0 0 -0.136424,0.160197 l 0.01757,0.264065 a 0.15001501,0.15001501 0 0 0 0.163814,0.138493 c 7.110476,-0.678773 15.704881,1.338289 25.820645,2.521294 4.777486,0.640781 10.071529,1.060074 15.820223,0.728636 5.532577,-0.288835 11.374467,-1.706774 17.056327,-4.5837 a 0.15001501,0.15001501 0 0 0 0.0667,-0.203605 l -0.12299,-0.234092 a 0.15001501,0.15001501 0 0 0 -0.20154,-0.0646 c -5.60111,2.837617 -11.36778,4.235112 -16.832037,4.521687 -0.1924,0.01111 -0.38275,0.01796 -0.574136,0.02739 0.230656,-0.142859 0.460836,-0.302477 0.644406,-0.513665 0.33105,-0.371441 0.46446,-0.823574 0.41652,-1.246436 a 0.15001501,0.15001501 0 0 0 0.0858,-0.142626 l -0.0196,-0.259416 c 5.038177,-0.361564 10.275687,-1.664126 15.306557,-4.226616 a 0.15001501,0.15001501 0 0 0 0.0646,-0.203089 l -0.12092,-0.232542 a 0.15001501,0.15001501 0 0 0 -0.20154,-0.0646 c -4.95326,2.524582 -10.11945,3.806338 -15.093647,4.164086 l -0.16226,-2.07791 c 4.758867,-0.352433 9.656617,-1.554869 14.283357,-3.927925 a 0.15001501,0.15001501 0 0 0 0.0646,-0.203089 l -0.12299,-0.234093 a 0.15001501,0.15001501 0 0 0 -0.20103,-0.06253 c -4.54709,2.333961 -9.37111,3.516048 -14.066837,3.86488 l -0.1266,-1.64021 -0.0336,-0.435631 c 4.478967,-0.343392 9.035447,-1.447168 13.258097,-3.630787 a 0.15001501,0.15001501 0 0 0 0.0625,-0.203089 l -0.12299,-0.234612 a 0.15001501,0.15001501 0 0 0 -0.20154,-0.06253 c -4.1405,2.143077 -8.62231,3.228303 -13.038987,3.568255 l -0.16175,-2.075841 c 4.198617,-0.334203 8.413637,-1.339906 12.232327,-3.334163 a 0.15001501,0.15001501 0 0 0 0.0625,-0.201022 L 111.0918,20.63327 a 0.15001501,0.15001501 0 0 0 -0.20154,-0.0646 c -3.73466,1.952511 -7.87555,2.940839 -12.013737,3.271637 l -0.14625,-1.890324 c 0.0293,-0.0024 0.0585,-0.0058 0.0878,-0.0083 a 0.15001501,0.15001501 0 0 0 0.13695,-0.161748 l -0.0238,-0.265618 a 0.15001501,0.15001501 0 0 0 -0.16175,-0.136943 c -0.0274,0.0024 -0.0548,0.0055 -0.0822,0.0078 l -0.503844,-6.487975 a 0.15001501,0.15001501 0 0 0 -0.162264,-0.136943 c -0.0704,0.0063 -0.142277,0.01159 -0.212907,0.01757 a 0.15001501,0.15001501 0 0 0 -0.136943,0.160197 l 0.379304,5.36143 c -0.0213,-0.01974 -0.04329,-0.03913 -0.0646,-0.05891 a 0.15001501,0.15001501 0 0 0 -0.21704,0.01394 c -0.31945,0.380045 -0.650124,0.755031 -0.988052,1.127064 C 96.418826,21.03785 96.061985,20.690016 95.714325,20.3382 a 0.15001501,0.15001501 0 0 0 -0.214974,0.0021 c -0.0586,0.06277 -0.118152,0.125029 -0.177252,0.187587 a 0.15001501,0.15001501 0 0 0 0.0016,0.209288 c 0.258342,0.262435 0.524968,0.5211 0.791168,0.77928 -0.44137,0.01029 -0.883367,0.01908 -1.326017,0.01757 a 0.15001501,0.15001501 0 0 0 -0.150379,0.150379 v 0.263549 a 0.15001501,0.15001501 0 0 0 0.148312,0.152447 c 0.44776,0.0016 0.895096,-0.0072 1.342036,-0.01757 -0.25967,0.273251 -0.520608,0.545322 -0.789099,0.814419 a 0.15001501,0.15001501 0 0 0 0,0.212908 c 0.0634,0.06197 0.127384,0.123777 0.191204,0.185518 a 0.15001501,0.15001501 0 0 0 0.210838,-0.0021 c 0.364951,-0.367234 0.71999,-0.739886 1.068668,-1.115176 0.37284,0.346699 0.750681,0.689686 1.1405,1.027327 a 0.15001501,0.15001501 0 0 0 0.210841,-0.01394 c 0.0289,-0.03255 0.05698,-0.06505 0.08578,-0.09767 l 0.05891,0.800986 c -0.009,5.3e-4 -0.01683,0.0016 -0.02532,0.0021 a 0.15001501,0.15001501 0 0 0 -0.0021,0 c -2.083768,0.135956 -4.161895,0.120462 -6.230625,0.01963 l 0.09767,-1.896525 c 0.03004,0.0013 0.05989,0.0021 0.08992,0.0036 a 0.15001501,0.15001501 0 0 0 0.156061,-0.142627 l 0.01394,-0.265618 a 0.15001501,0.15001501 0 0 0 -0.144695,-0.156061 c -0.02872,-0.0013 -0.05705,-0.0027 -0.08578,-0.0041 L 92.720201,10.8639 a 0.15001501,0.15001501 0 0 0 -0.14056,-0.156065 c -1.982277,-0.114067 -4.099915,-0.343291 -6.341732,-0.60358 h -0.0021 C 82.243103,9.5611904 77.924865,8.8259264 73.274874,8.2506511 Z m 0.220657,1.6696659 c 4.395806,0.5584216 8.528163,1.2526856 12.400793,1.7776696 l -0.176215,1.41025 c -0.03392,0.232968 -0.06929,0.474067 -0.103354,0.720368 -0.201399,1.457251 -0.398579,3.080448 -0.543119,4.320667 -0.10233,0.878271 -0.139199,1.231339 -0.167949,1.493967 -0.02056,-0.0269 -0.04198,-0.05319 -0.06253,-0.0801 a 0.15001501,0.15001501 0 0 0 -0.210842,-0.02739 c -0.402992,0.312052 -0.810215,0.621906 -1.21853,0.931725 -0.31092,-0.40521 -0.621422,-0.80989 -0.929659,-1.21698 a 0.15001501,0.15001501 0 0 0 -0.20929,-0.02894 c -0.07018,0.05312 -0.140542,0.106601 -0.210839,0.159679 a 0.15001501,0.15001501 0 0 0 -0.02946,0.209291 c 0.226917,0.299987 0.455359,0.598998 0.683678,0.898136 -0.449831,-0.0618 -0.898588,-0.122889 -1.349269,-0.187069 a 0.15001501,0.15001501 0 0 0 -0.170016,0.126606 l -0.03927,0.263551 a 0.15001501,0.15001501 0 0 0 0.129191,0.170014 c 0.451501,0.06424 0.902425,0.125701 1.353407,0.187587 -0.304228,0.228346 -0.608012,0.456205 -0.914156,0.683678 a 0.15001501,0.15001501 0 0 0 -0.03101,0.210841 c 0.05352,0.07066 0.108133,0.142288 0.161748,0.212907 a 0.15001501,0.15001501 0 0 0 0.209288,0.02945 c 0.415626,-0.3092 0.828196,-0.618591 1.240234,-0.929659 0.312788,0.405826 0.625885,0.81125 0.943097,1.214914 a 0.15001501,0.15001501 0 0 0 0.209288,0.02739 c 0.07026,-0.05414 0.140719,-0.108042 0.210841,-0.162264 a 0.15001501,0.15001501 0 0 0 0.02739,-0.212904 c -0.233204,-0.296276 -0.464804,-0.593297 -0.695563,-0.890903 0.273569,0.03565 0.547235,0.07169 0.820621,0.105937 a 0.15001501,0.15001501 0 0 0 0.0021,0 c 0.175897,0.02175 0.351176,0.04286 0.5271,0.06408 a 0.15001501,0.15001501 0 0 0 0.165881,-0.130741 l 0.03307,-0.263551 a 0.15001501,0.15001501 0 0 0 -0.130741,-0.167947 c -0.175315,-0.02111 -0.351739,-0.04294 -0.5271,-0.0646 -0.271931,-0.03413 -0.544248,-0.06783 -0.816486,-0.103354 0.26076,-0.199043 0.520695,-0.399899 0.77928,-0.599964 -5e-6,6.1e-5 -0.0021,0.01188 -0.0021,0.01188 a 0.15001501,0.15001501 0 0 0 0.130741,0.165883 c 0.08738,0.01085 0.174646,0.02082 0.261998,0.03152 a 0.15001501,0.15001501 0 0 0 0.16795,-0.130742 l 0.77928,-6.28954 c 2.001927,0.235001 3.940429,0.437645 5.808432,0.55294 l -0.32608,5.888529 c -0.02196,-0.02553 -0.04473,-0.05042 -0.06666,-0.07596 a 0.15001501,0.15001501 0 0 0 -0.214458,-0.01344 c -0.372375,0.337579 -0.753116,0.671441 -1.13688,1.003557 -0.328028,-0.384559 -0.652751,-0.769475 -0.972551,-1.158071 A 0.15001501,0.15001501 0 0 0 89.071939,20.0395 c -0.06625,0.05654 -0.132423,0.113617 -0.198956,0.170016 a 0.15001501,0.15001501 0 0 0 -0.01757,0.208772 c 0.236858,0.288428 0.476996,0.574985 0.718301,0.861446 -0.447362,-0.03739 -0.893505,-0.07492 -1.341519,-0.118856 a 0.15001501,0.15001501 0 0 0 -0.16433,0.13281 l -0.02687,0.265616 a 0.15001501,0.15001501 0 0 0 0.134358,0.163814 c 0.449755,0.0441 0.900229,0.08182 1.349791,0.119374 -0.289822,0.244232 -0.578139,0.488678 -0.872816,0.730187 a 0.15001501,0.15001501 0 0 0 -0.0217,0.212908 c 0.05686,0.06804 0.114957,0.135149 0.172083,0.203088 a 0.15001501,0.15001501 0 0 0 0.208772,0.01963 c 0.400537,-0.329083 0.796028,-0.661889 1.187524,-0.996322 0.334079,0.38704 0.670748,0.774258 1.015442,1.15652 a 0.15001501,0.15001501 0 0 0 0.210841,0.01188 c 0.03249,-0.02864 0.06526,-0.05762 0.09767,-0.0863 l -0.04444,0.7953 C 89.165744,23.757597 86.865017,23.51936 84.58747,23.231031 80.359064,22.703388 76.15833,22.00215 71.978421,21.445612 l 0.236162,-1.804543 c 0.08495,0.01122 0.17087,0.02175 0.255796,0.03307 a 0.15001501,0.15001501 0 0 0 0.16795,-0.128672 l 0.03514,-0.263552 a 0.15001501,0.15001501 0 0 0 -0.128676,-0.167944 c -0.08518,-0.01135 -0.17059,-0.02236 -0.255796,-0.03359 z m 12.949597,1.8360626 c 1.971559,0.228486 3.871949,0.431779 5.673556,0.545187 l -0.02739,0.491959 c -1.819442,-0.11375 -3.724278,-0.312145 -5.707148,-0.543118 z m -14.425993,4.982641 -0.220658,1.691371 a 0.15001501,0.15001501 0 0 0 -0.08423,-0.04703 c -0.0678,-0.0087 -0.135261,-0.01675 -0.203089,-0.02532 -0.232161,-0.291507 -0.465323,-0.582556 -0.700731,-0.872812 0.304041,-0.230701 0.609473,-0.460661 0.915705,-0.689883 0.0634,0.008 0.128362,0.01574 0.19172,0.02379 a 0.15001501,0.15001501 0 0 0 0.101285,-0.0801 z m -1.661912,1.091407 c 0.240361,0.295629 0.47974,0.591769 0.716751,0.888836 l -0.01963,0.167946 a 0.15001501,0.15001501 0 0 0 0.01188,0.04289 c -0.555892,-0.06907 -1.112941,-0.134543 -1.670182,-0.196887 a 0.15001501,0.15001501 0 0 0 0.03721,-0.02945 l 0.01964,-0.177769 c 0.29963,-0.233185 0.6018,-0.464111 0.904338,-0.695565 z m 21.296889,2.904733 -0.03927,0.689364 c -0.229241,-0.01299 -0.45782,-0.02765 -0.687295,-0.04289 0.244387,-0.214487 0.486846,-0.429604 0.726569,-0.646472 z m 6.427515,0.0098 0.04909,0.681612 c -0.005,2.64e-4 -0.01082,0.0016 -0.01603,0.0021 -0.220499,0.01519 -0.441084,0.02703 -0.661974,0.03876 0.21278,-0.239747 0.423582,-0.479263 0.628901,-0.722437 z m -7.191293,1.20096 c 0.230966,0.01532 0.462645,0.02982 0.6935,0.04289 l -0.03928,0.697116 C 91.323556,22.440383 91.107106,22.19344 90.89043,21.945835 Z m 7.279143,0.04496 0.05064,0.697116 c -0.24964,-0.216583 -0.491784,-0.437362 -0.734322,-0.657842 0.222718,-0.0118 0.445725,-0.02193 0.668176,-0.03721 0.005,-2.65e-4 0.01029,-0.0016 0.0155,-0.0021 z m -26.265579,0.0155 c 4.166627,0.555379 8.367906,1.254676 12.611116,1.783353 2.285185,0.289737 4.60049,0.531463 6.931877,0.664043 l -0.11524,2.076357 c -2.399927,-0.13416 -4.762447,-0.378846 -7.073987,-0.675907 a 0.15001501,0.15001501 0 0 0 -0.0021,0 c -4.300799,-0.528072 -8.503581,-1.226754 -12.623,-1.781289 z m 26.43973,2.451529 0.14831,2.075841 c -0.0123,7.94e-4 -0.0249,0.0013 -0.03721,0.0021 -0.06219,0.0039 -0.124812,0.0073 -0.187068,0.01085 -0.46273,-0.116425 -1.012193,-0.07065 -1.482598,0.0677 -1.641036,0.05147 -3.265046,0.02368 -4.873088,-0.05323 l 0.106971,-2.079977 c 2.086417,0.101515 4.187179,0.115485 6.29729,-0.0217 0.009,-5.29e-4 0.01839,-0.0011 0.02739,-0.0016 z m -26.785445,0.175699 c 4.106407,0.553405 8.311295,1.252228 12.627136,1.781289 2.319668,0.298545 4.696703,0.544589 7.115326,0.679545 l -0.115237,2.077908 c -2.487223,-0.13656 -4.912434,-0.387697 -7.257954,-0.693497 a 0.15001501,0.15001501 0 0 0 -0.0021,0 C 79.552137,27.95039 75.345826,27.254161 71.286935,26.701634 Z m 20.324339,2.491838 c 1.316201,0.06285 2.647119,0.08238 3.988387,0.06253 -0.241469,0.216511 -0.494218,0.436105 -0.640786,0.724503 -0.200872,0.395235 -0.274831,0.846206 -0.03514,1.209231 0.0488,0.07388 0.148953,0.09147 0.214974,0.148309 -1.224161,0.0082 -2.438162,-0.01005 -3.632853,-0.06615 z m -20.670054,0.134877 c 4.045675,0.551389 8.254875,1.249857 12.642638,1.779219 2.354728,0.307433 4.794252,0.558263 7.300846,0.695563 l -0.117306,2.085663 c -0.07717,-0.0042 -0.15449,-0.008 -0.23151,-0.01241 -0.46528,-0.173889 -1.042109,-0.190823 -1.544608,-0.102319 -1.945807,-0.147392 -3.83589,-0.358135 -5.665288,-0.599962 a 0.15001501,0.15001501 0 0 0 -0.0021,0 C 79.148677,30.577155 74.938026,29.880965 70.939148,29.330409 Z m 27.433464,1.478462 0.0315,0.435631 c -0.0156,7.94e-4 -0.0314,0.0011 -0.047,0.0021 -0.172551,0.01056 -0.34371,0.01638 -0.515732,0.02532 0.190651,-0.128723 0.375425,-0.276829 0.531232,-0.463021 z m 0.0703,0.99632 0.14883,2.077911 c -0.0195,0.0011 -0.0394,0.003 -0.0589,0.0041 -0.067,0.004 -0.13453,0.0067 -0.20154,0.01035 -0.51185,-0.118944 -1.127284,-0.07033 -1.64951,0.07131 -1.812534,0.0545 -3.583258,0.02719 -5.314921,-0.05271 l 0.107487,-2.082043 c 2.25263,0.105669 4.557194,0.118568 6.917924,-0.02532 0.017,-0.0011 0.0336,-0.0026 0.0506,-0.0036 z m -27.849459,0.153998 c 3.985469,0.549413 8.197744,1.24586 12.65814,1.775601 1.53679,0.203419 3.127327,0.376719 4.750099,0.517281 -0.266555,0.190543 -0.546473,0.381601 -0.722437,0.652674 -0.242721,0.373907 -0.360749,0.819031 -0.156581,1.205095 0.04207,0.07955 0.14165,0.107736 0.203089,0.171564 C 86.117872,34.0754 84.664069,33.91828 83.267148,33.731161 a 0.15001501,0.15001501 0 0 0 -0.0021,0 c -4.902403,-0.574133 -9.416642,-1.339286 -13.636376,-1.904278 0.279575,-0.150286 0.563875,-0.359613 0.782897,-0.642852 0.218853,-0.283023 0.336619,-0.617739 0.361736,-0.951365 a 0.15001501,0.15001501 0 0 0 0.06046,-0.09922 z m 20.744468,2.519741 c 1.420143,0.06546 2.872917,0.08622 4.349607,0.0646 -0.262041,0.215328 -0.538004,0.431032 -0.697632,0.718304 -0.220181,0.396226 -0.298638,0.857975 -0.03721,1.221113 0.0492,0.06835 0.150146,0.08109 0.214974,0.134358 -1.748112,0.01177 -3.444139,-0.04274 -5.099431,-0.142111 0.311589,-0.164613 0.62501,-0.370437 0.85163,-0.652671 0.254268,-0.316683 0.394984,-0.687316 0.364834,-1.05265 a 0.15001501,0.15001501 0 0 0 0.04134,-0.03721 z" />
  <path
     id="rect8548"
     style="fill:#373737;fill-opacity:1;stroke-width:0.79375;stroke-linecap:round;stroke-linejoin:round;paint-order:markers stroke fill"
     d="m 42.557128,17.616639 c -1.83224,0 -3.307292,1.475052 -3.307292,3.307291 v 10.583335 c 0,1.832239 1.475052,3.307291 3.307292,3.307291 h 10.583333 c 1.832239,0 3.307291,-1.475052 3.307291,-3.307291 V 20.92393 c 0,-1.832239 -1.475052,-3.307291 -3.307291,-3.307291 z"
     sodipodi:nodetypes="sssssssss" />
  <path
     id="path22245"
     style="fill:#808080;stroke-width:0.79375;stroke-linecap:round;stroke-linejoin:round;paint-order:markers stroke fill"
     d="m 42.539902,16.558072 c -0.35847,0.009 -0.644405,0.300736 -0.644405,0.661459 v 0.46302 c 0.213634,-0.04304 0.434773,-0.06615 0.661458,-0.06615 h 0.661459 v -0.39687 c 0,-0.366449 -0.29501,-0.661459 -0.661459,-0.661459 -0.0057,0 -0.01136,-1.43e-4 -0.01705,0 z m 2.645833,0 c -0.358471,0.009 -0.644405,0.300736 -0.644405,0.661459 v 0.396875 h 1.322917 v -0.396875 c 0,-0.366449 -0.29501,-0.661459 -0.661458,-0.661459 -0.0057,0 -0.01136,-1.43e-4 -0.01705,0 z m 2.645834,0 c -0.358471,0.009 -0.644405,0.300736 -0.644405,0.661459 v 0.396875 h 1.322916 v -0.396875 c 0,-0.366449 -0.29501,-0.661459 -0.661458,-0.661459 -0.0057,0 -0.01136,-1.43e-4 -0.01705,0 z m 2.645833,0 c -0.358471,0.009 -0.644405,0.300736 -0.644405,0.661459 v 0.396875 h 1.322917 v -0.396875 c 0,-0.366449 -0.295012,-0.661459 -0.661459,-0.661459 -0.0057,0 -0.01136,-1.43e-4 -0.01705,0 z m 2.645833,0 c -0.35847,0.009 -0.644405,0.300736 -0.644405,0.661459 v 0.396875 h 0.661459 c 0.226685,0 0.447824,0.02311 0.661458,0.06615 v -0.463025 c 0,-0.366449 -0.29501,-0.661459 -0.661458,-0.661459 -0.0057,0 -0.01136,-1.43e-4 -0.01705,0 z m -14.287499,3.704167 c -0.358471,0.009 -0.644406,0.300737 -0.644406,0.661459 0,0.366448 0.295011,0.661458 0.661459,0.661458 h 0.396875 v -0.661458 c 0,-0.226686 0.02311,-0.447825 0.06615,-0.661459 h -0.463021 c -0.0057,0 -0.01136,-1.43e-4 -0.01705,0 z m 17.545698,0 c 0.04304,0.213634 0.06615,0.434773 0.06615,0.661459 v 0.661458 h 0.396875 c 0.366448,0 0.661459,-0.29501 0.661459,-0.661458 0,-0.366448 -0.295011,-0.661459 -0.661459,-0.661459 z m -17.545698,2.645834 c -0.358471,0.009 -0.644406,0.300735 -0.644406,0.661458 0,0.366447 0.295011,0.661458 0.661459,0.661458 h 0.396875 v -1.322916 h -0.396875 c -0.0057,0 -0.01136,-1.43e-4 -0.01705,0 z m 17.611844,0 v 1.322916 h 0.396875 c 0.366448,0 0.661459,-0.295011 0.661459,-0.661458 0,-0.366449 -0.295011,-0.661458 -0.661459,-0.661458 z m -17.611844,2.645833 c -0.358471,0.009 -0.644406,0.300736 -0.644406,0.661458 0,0.366448 0.295011,0.661459 0.661459,0.661459 h 0.396875 v -1.322917 h -0.396875 c -0.0057,0 -0.01136,-1.46e-4 -0.01705,0 z m 17.611844,0 v 1.322917 h 0.396875 c 0.366448,0 0.661459,-0.295011 0.661459,-0.661459 0,-0.366448 -0.295011,-0.661458 -0.661459,-0.661458 z m -17.611844,2.645833 c -0.358471,0.009 -0.644406,0.300736 -0.644406,0.661459 0,0.366447 0.295011,0.661458 0.661459,0.661458 h 0.396875 v -1.322917 h -0.396875 c -0.0057,0 -0.01136,-1.46e-4 -0.01705,0 z m 17.611844,0 v 1.322917 h 0.396875 c 0.366448,0 0.661459,-0.295011 0.661459,-0.661458 0,-0.366448 -0.295011,-0.661459 -0.661459,-0.661459 z m -17.611844,2.645834 c -0.358471,0.009 -0.644406,0.300735 -0.644406,0.661458 0,0.366447 0.295011,0.661458 0.661459,0.661458 h 0.463021 c -0.04304,-0.213633 -0.06615,-0.434773 -0.06615,-0.661458 v -0.661458 h -0.396875 c -0.0057,0 -0.01136,-1.45e-4 -0.01705,0 z m 17.611844,0 v 0.661458 c 0,0.226685 -0.02311,0.447825 -0.06615,0.661458 h 0.463021 c 0.366448,0 0.661459,-0.295011 0.661459,-0.661458 0,-0.366448 -0.295011,-0.661458 -0.661459,-0.661458 z m -14.552083,3.902604 v 0.46302 c 0,0.366448 0.29501,0.661459 0.661458,0.661459 0.366449,0 0.661459,-0.295011 0.661459,-0.661459 v -0.396875 h -0.661459 c -0.226685,0 -0.447824,-0.0231 -0.661458,-0.06614 z m 11.90625,0 c -0.213634,0.04304 -0.434773,0.06614 -0.661458,0.06614 H 52.47883 v 0.396875 c 0,0.366448 0.295011,0.661459 0.661459,0.661459 0.366448,0 0.661458,-0.295011 0.661458,-0.661459 z m -9.260417,0.06614 v 0.396875 c 0,0.366448 0.295011,0.661459 0.661459,0.661459 0.366448,0 0.661458,-0.295011 0.661458,-0.661459 v -0.396875 z m 2.645834,0 v 0.396875 c 0,0.366448 0.29501,0.661459 0.661458,0.661459 0.366448,0 0.661458,-0.295011 0.661458,-0.661459 v -0.396875 z m 2.645833,0 v 0.396875 c 0,0.366448 0.29501,0.661459 0.661458,0.661459 0.366447,0 0.661459,-0.295011 0.661459,-0.661459 v -0.396875 z"
     sodipodi:nodetypes="sscscsssssccsssssccsssssccssssscscsssssscscsscscssscsssccssccsssccssccscccsssccssccscccsssccsscscsccscsssccssscsccscsssccssscccssscccssscc" />
  <path
     id="path984"
     style="color:#000000;fill:#808080;stroke-width:1.649;stroke-miterlimit:3.9;-inkscape-stroke:none"
     d="m 47.841114,19.515819 c -0.157875,3.2e-4 -0.317543,0.0063 -0.477201,0.01789 -3.382997,0.245759 -6.045731,2.984577 -6.205314,6.365517 a 0.4625444,0.4625444 0 0 0 -0.314441,0.387726 0.4625444,0.4625444 0 0 0 0.405621,0.511287 l 0.0067,8.73e-4 a 0.4625444,0.4625444 0 0 0 0.507876,-0.411607 0.4625444,0.4625444 0 0 0 -0.297396,-0.481461 c 0.155286,-3.224799 2.692212,-5.831947 5.919844,-6.066414 3.251769,-0.236236 6.158006,2.012902 6.74813,5.219382 l 0.303363,-0.05709 c -0.589211,-3.201181 -3.387069,-5.492602 -6.5973,-5.486104 z m 0.01534,1.408596 a 0.4625444,0.4625444 0 0 0 -0.44141,0.410733 0.4625444,0.4625444 0 0 0 0.278651,0.477201 v 2.063893 l 0.962923,0.962923 h 2.075822 a 0.4625444,0.4625444 0 0 0 0.382614,0.306771 l 0.0067,8.72e-4 a 0.4625444,0.4625444 0 0 0 0.507874,-0.411585 0.4625444,0.4625444 0 0 0 -0.409882,-0.508729 0.4625444,0.4625444 0 0 0 -0.06817,-0.0035 l -8.74e-4,8.72e-4 a 0.4625444,0.4625444 0 0 0 -0.41832,0.309342 h -1.947126 l -0.782268,-0.782227 v -1.919883 a 0.4625444,0.4625444 0 0 0 0.332337,-0.395395 0.4625444,0.4625444 0 0 0 -0.409883,-0.508729 0.4625444,0.4625444 0 0 0 -0.06817,-0.0016 z m 0.0075,0.215592 h 8.72e-4 a 0.24669035,0.24669035 0 0 1 0.03664,0.0016 0.24669035,0.24669035 0 0 1 0.218155,0.27098 0.24669035,0.24669035 0 0 1 -0.214739,0.219001 h -0.05964 a 0.24669035,0.24669035 0 0 1 -0.217297,-0.272687 0.24669035,0.24669035 0 0 1 0.236045,-0.219 z m -2.403892,0.711541 -8.72e-4,8.5e-4 a 0.4625444,0.4625444 0 0 0 -0.441396,0.410734 0.4625444,0.4625444 0 0 0 0.405623,0.511288 l 0.0067,8.5e-4 a 0.4625444,0.4625444 0 0 0 0.246264,-0.04261 l 0.633993,0.633993 a 0.4625444,0.4625444 0 0 0 -0.04261,0.146564 0.4625444,0.4625444 0 0 0 0.405621,0.511287 l 0.0067,8.72e-4 a 0.4625444,0.4625444 0 0 0 0.507884,-0.411604 0.4625444,0.4625444 0 0 0 -0.409881,-0.508728 0.4625444,0.4625444 0 0 0 -0.06817,-0.0035 l -8.72e-4,8.51e-4 a 0.4625444,0.4625444 0 0 0 -0.179802,0.04516 L 45.895249,22.51356 a 0.4625444,0.4625444 0 0 0 0.04261,-0.149978 0.4625444,0.4625444 0 0 0 -0.40988,-0.508729 0.4625444,0.4625444 0 0 0 -0.06817,-0.0035 z m 4.738772,0 v 8.5e-4 a 0.4625444,0.4625444 0 0 0 -0.44141,0.410734 0.4625444,0.4625444 0 0 0 0.04175,0.251382 l -0.633144,0.633144 a 0.4625444,0.4625444 0 0 0 -8.72e-4,-8.51e-4 0.4625444,0.4625444 0 0 0 -0.148278,-0.04175 0.4625444,0.4625444 0 0 0 -0.06817,-0.0035 v 8.49e-4 a 0.4625444,0.4625444 0 0 0 -0.441394,0.41074 0.4625444,0.4625444 0 0 0 0.405621,0.511285 l 0.0059,8.73e-4 a 0.4625444,0.4625444 0 0 0 0.507872,-0.411585 0.4625444,0.4625444 0 0 0 -0.04175,-0.247122 l 0.633994,-0.633164 a 0.4625444,0.4625444 0 0 0 0.144008,0.0409 l 0.0059,8.51e-4 a 0.4625444,0.4625444 0 0 0 0.507873,-0.411585 0.4625444,0.4625444 0 0 0 -0.409881,-0.508731 0.4625444,0.4625444 0 0 0 -0.06818,-0.0035 z m -4.731958,0.216443 h 8.72e-4 a 0.24669035,0.24669035 0 0 1 0.03664,0.0016 0.24669035,0.24669035 0 0 1 0.21815,0.270982 0.24669035,0.24669035 0 0 1 -0.270981,0.219862 l -0.0035,-8.51e-4 a 0.24669035,0.24669035 0 0 1 -0.217219,-0.272654 0.24669035,0.24669035 0 0 1 0.236043,-0.219001 z m 4.738774,0 h 8.73e-4 a 0.24669035,0.24669035 0 0 1 0.03664,0.0016 0.24669035,0.24669035 0 0 1 0.21815,0.270982 0.24669035,0.24669035 0 0 1 -0.270984,0.219855 l -0.0035,-8.44e-4 a 0.24669035,0.24669035 0 0 1 -0.21722,-0.272654 0.24669035,0.24669035 0 0 1 0.236045,-0.219001 z m -3.488678,1.250097 h 8.73e-4 a 0.24669035,0.24669035 0 0 1 0.03664,0.0016 0.24669035,0.24669035 0 0 1 0.218149,0.270982 0.24669035,0.24669035 0 0 1 -0.270981,0.219853 l -0.0035,-8.52e-4 a 0.24669035,0.24669035 0 0 1 -0.217226,-0.272644 0.24669035,0.24669035 0 0 1 0.236044,-0.219004 z m 2.238581,0 h 8.72e-4 a 0.24669035,0.24669035 0 0 1 0.03664,0.0016 0.24669035,0.24669035 0 0 1 0.218151,0.270982 0.24669035,0.24669035 0 0 1 -0.271001,0.219851 l -0.0035,-8.51e-4 a 0.24669035,0.24669035 0 0 1 -0.217155,-0.272677 0.24669035,0.24669035 0 0 1 0.236042,-0.219004 z m -4.4447,0.904977 -8.51e-4,8.72e-4 a 0.4625444,0.4625444 0 0 0 -0.441411,0.410734 0.4625444,0.4625444 0 0 0 0.40562,0.511286 l 0.0067,8.72e-4 a 0.4625444,0.4625444 0 0 0 0.484024,-0.307624 h 1.946296 l 0.782269,0.783121 v 4.869112 h 0.309328 v -4.99527 l -0.962875,-0.962924 h -2.07497 a 0.4625444,0.4625444 0 0 0 -0.386021,-0.306771 0.4625444,0.4625444 0 0 0 -0.06817,-0.0035 z m 0.0067,0.216443 h 8.5e-4 a 0.24669035,0.24669035 0 0 1 0.03664,0.0016 0.24669035,0.24669035 0 0 1 0.218147,0.270983 0.24669035,0.24669035 0 0 1 -0.270981,0.219854 l -0.0035,-8.74e-4 a 0.24669035,0.24669035 0 0 1 -0.217183,-0.272682 0.24669035,0.24669035 0 0 1 0.236044,-0.219002 z m 6.640758,0 a 0.24669035,0.24669035 0 0 1 0.03664,0.0016 0.24669035,0.24669035 0 0 1 0.218149,0.270983 0.24669035,0.24669035 0 0 1 -0.270982,0.219854 l -0.0027,-8.74e-4 a 0.24669035,0.24669035 0 0 1 -0.217177,-0.272682 0.24669035,0.24669035 0 0 1 0.236044,-0.219002 z m -6.155038,1.431602 v 8.74e-4 a 0.4625444,0.4625444 0 0 0 -0.441402,0.410733 0.4625444,0.4625444 0 0 0 0.405619,0.511287 l 0.0059,8.72e-4 a 0.4625444,0.4625444 0 0 0 0.484015,-0.306771 h 0.58031 l 0.78312,0.783119 0.0035,3.159751 -0.828285,0.827433 0.216446,0.215593 0.917759,-0.91776 V 27.14596 l -0.9629,-0.966332 h -0.709837 a 0.4625444,0.4625444 0 0 0 -0.386022,-0.305068 0.4625444,0.4625444 0 0 0 -0.06817,-0.0035 z m 5.654829,0 -8.73e-4,8.74e-4 a 0.4625444,0.4625444 0 0 0 -0.417543,0.307624 h -0.710639 l -0.962922,0.962923 v 3.41369 l 0.917759,0.917758 0.219,-0.215591 -0.827431,-0.827432 v -3.159751 l 0.783119,-0.783121 h 0.581164 a 0.4625444,0.4625444 0 0 0 0.38176,0.305068 l 0.0067,8.72e-4 a 0.4625444,0.4625444 0 0 0 0.507888,-0.411626 0.4625444,0.4625444 0 0 0 -0.40988,-0.507877 0.4625444,0.4625444 0 0 0 -0.06817,-0.0035 z m 3.716203,0.0051 a 0.4625444,0.4625444 0 0 0 -0.441405,0.410737 0.4625444,0.4625444 0 0 0 0.281207,0.478052 c -0.26685,3.104482 -2.735535,5.571042 -5.856737,5.819292 -3.172506,0.252331 -6.045289,-1.863571 -6.742164,-4.968852 l -0.302513,0.06731 c 0.729988,3.252849 3.743589,5.47518 7.066833,5.210862 3.272737,-0.260302 5.870116,-2.854857 6.145664,-6.111579 a 0.4625444,0.4625444 0 0 0 0.328075,-0.394543 0.4625444,0.4625444 0 0 0 -0.40988,-0.50873 0.4625444,0.4625444 0 0 0 -0.06818,-0.0016 z m -9.364215,0.21048 8.51e-4,8.73e-4 a 0.24669035,0.24669035 0 0 1 0.03664,8.73e-4 0.24669035,0.24669035 0 0 1 0.21815,0.270982 0.24669035,0.24669035 0 0 1 -0.270982,0.219853 l -0.0035,-8.72e-4 a 0.24669035,0.24669035 0 0 1 -0.217183,-0.272686 0.24669035,0.24669035 0 0 1 0.236042,-0.219 z m 5.65483,0 8.73e-4,8.73e-4 a 0.24669035,0.24669035 0 0 1 0.03664,8.73e-4 0.24669035,0.24669035 0 0 1 0.218147,0.270982 0.24669035,0.24669035 0 0 1 -0.270981,0.219853 l -0.0035,-8.7e-4 a 0.24669035,0.24669035 0 0 1 -0.217181,-0.272688 0.24669035,0.24669035 0 0 1 0.236044,-0.219 z m -9.371881,0.0051 h 8.49e-4 a 0.24669035,0.24669035 0 0 1 0.03664,0.0016 0.24669035,0.24669035 0 0 1 0.218155,0.270988 0.24669035,0.24669035 0 0 1 -0.27098,0.219855 l -0.0035,-8.72e-4 a 0.24669035,0.24669035 0 0 1 -0.217192,-0.272687 0.24669035,0.24669035 0 0 1 0.236043,-0.219 z m 13.088933,0 h 8.73e-4 a 0.24669035,0.24669035 0 0 1 0.03664,0.0016 0.24669035,0.24669035 0 0 1 0.218154,0.270988 0.24669035,0.24669035 0 0 1 -0.270999,0.219855 l -0.0035,-8.72e-4 a 0.24669035,0.24669035 0 0 1 -0.217188,-0.272687 0.24669035,0.24669035 0 0 1 0.236045,-0.219 z" />
  <circle
     style="fill:#ffffff;stroke-width:0.261931;stroke-linejoin:round;paint-order:markers stroke fill"
     id="path1180"
     cx="41.712341"
     cy="20.079145"
     r="0.875" />
  <g
     id="g1150"
     transform="translate(-1.6486507,-1.3389177)">
    <text
       xml:space="preserve"
       style="font-style:normal;font-variant:normal;font-weight:normal;font-stretch:normal;font-size:12.7px;line-height:125%;font-family:'Source Sans Pro';-inkscape-font-specification:'Source Sans Pro, Normal';font-variant-ligatures:normal;font-variant-caps:normal;font-variant-numeric:normal;font-variant-east-asian:normal;text-align:center;letter-spacing:0px;word-spacing:0px;text-anchor:middle;opacity:1;mix-blend-mode:normal;fill:#000000;fill-opacity:1;stroke:#000000;stroke-width:0.264583px;stroke-linecap:butt;stroke-linejoin:miter;stroke-opacity:1"
       x="85.234032"
       y="49.067535"
       id="text320"><tspan
         sodipodi:role="line"
         id="tspan318"
         style="font-style:normal;font-variant:normal;font-weight:normal;font-stretch:normal;font-size:12.7px;font-family:'Source Sans Pro';-inkscape-font-specification:'Source Sans Pro, Normal';font-variant-ligatures:normal;font-variant-caps:normal;font-variant-numeric:normal;font-variant-east-asian:normal;fill:#000000;fill-opacity:1;stroke:none;stroke-width:0.264583px"
         x="85.234032"
         y="49.067535">NiftyDrum</tspan></text>
    <text
       xml:space="preserve"
       style="font-style:normal;font-variant:normal;font-weight:normal;font-stretch:normal;font-size:12.7px;line-height:125%;font-family:'Source Sans Pro';-inkscape-font-specification:'Source Sans Pro, Normal';font-variant-ligatures:normal;font-variant-caps:normal;font-variant-numeric:normal;font-variant-east-asian:normal;text-align:center;letter-spacing:0px;word-spacing:0px;text-anchor:middle;opacity:1;mix-blend-mode:normal;fill:url(#linearGradient1144);fill-opacity:1;stroke:#000000;stroke-width:0.264583px;stroke-linecap:butt;stroke-linejoin:miter;stroke-opacity:1"
       x="85.234032"
       y="49.067535"
       id="text1136"><tspan
         sodipodi:role="line"
         id="tspan1134"
         style="font-style:normal;font-variant:normal;font-weight:normal;font-stretch:normal;font-size:12.7px;font-family:'Source Sans Pro';-inkscape-font-specification:'Source Sans Pro, Normal';font-variant-ligatures:normal;font-variant-caps:normal;font-variant-numeric:normal;font-variant-east-asian:normal;fill:url(#linearGradient1144);fill-opacity:1;stroke:none;stroke-width:0.264583px"
         x="85.234032"
         y="49.067535">NiftyDrum</tspan></text>
  </g>
  <text
     xml:space="preserve"
     style="font-size:4.23333px;line-height:125%;font-family:'Source Sans Pro';-inkscape-font-specification:'Source Sans Pro';text-align:center;letter-spacing:0px;word-spacing:0px;text-anchor:middle;fill:none;stroke:#000000;stroke-width:0.264583px;stroke-linecap:butt;stroke-linejoin:miter;stroke-opacity:1"
     x="89.518417"
     y="55.578903"
     id="text1254"><tspan
       sodipodi:role="line"
       id="tspan1252"
       style="font-size:4.23333px;fill:#545454;fill-opacity:1;stroke:none;stroke-width:0.264583px"
       x="89.518417"
       y="55.578903">by Ronna Technologies</tspan></text>
</svg>
